<svg xmlns="http://www.w3.org/2000/svg" viewBox="0 0 60 60">
  <g fill="none">
    <path fill="#363563" d="M51.251025,38.4046693 C54.1837216,38.4553083 56.4565417,40.8190075 56.4075651,43.6762623 C56.3595033,46.4742438 54.0870176,49.7276265 51.2296642,49.7276265 L51.1643629,49.7276265 C49.7807877,49.7039405 48.466101,48.9372375 47.4620976,47.5685836 C46.5845989,46.372149 46.0744337,44.8511112 46.0975614,43.4970422 C46.1461455,40.689493 48.4576379,38.4046693 51.251025,38.4046693 Z M51.3064555,40.3891051 C49.5244635,40.3891051 48.0965929,41.8142646 48.0669302,43.5674807 C48.0507533,44.4940738 48.425135,45.5989783 49.0435626,46.4493325 C49.6656721,47.3056428 50.451242,47.80427 51.1977618,47.8174997 L51.229,48.78 L51.2296715,47.8174997 C52.8368225,47.8174997 54.3092251,45.6496975 54.4306522,43.8564147 L54.4382466,43.678429 C54.4683914,41.8956656 53.0638991,40.4202547 51.3069894,40.389689 Z M32.7910877,19.0272374 L38.3476211,21.3518621 L36.7299462,24.4594841 C37.2852395,24.9055429 37.7910271,25.4124227 38.2319568,25.9645612 L41.320752,24.3324132 L43.6107774,29.9327568 L40.2934405,30.9766926 C40.3719184,31.691145 40.3723713,32.405492 40.2943478,33.1130292 L43.6135427,34.1578777 L41.3064108,39.7573072 L38.2353832,38.1278504 C37.7949181,38.6855234 37.2913834,39.1919468 36.7307017,39.6417031 L38.3493057,42.7501441 L32.7914948,45.0583658 L31.7549519,41.7159082 C31.0513272,41.7931524 30.337367,41.7949801 29.6356003,41.7159082 L28.5995103,45.0583658 L23.0412349,42.7501441 L24.6606518,39.6393629 C24.1077275,39.1923914 23.6014754,38.681393 23.1578283,38.1246912 L20.0699621,39.7559031 L17.7795527,34.1564736 L21.0973541,33.1125377 C21.0202368,32.4031167 21.0202368,31.6828257 21.0969005,30.9762012 L17.7767765,29.9313527 L20.0839085,24.3319231 L23.1581876,25.9631351 C23.5987224,25.4100956 24.1008868,24.9045849 24.6606627,24.4520906 L23.0403168,21.3518402 L28.5990567,19.0272374 L29.6342409,22.3784705 C30.3387947,22.2961994 31.0527781,22.2971133 31.7554506,22.3775564 L32.7910877,19.0272374 Z M33.9535447,21.7120623 L33.0364586,24.6800253 L32.169718,24.491724 C31.1673373,24.2769219 30.1096764,24.2769219 29.102779,24.491724 L28.2364913,24.6791127 L27.3203109,21.7120623 L25.6916309,22.3939789 L27.116305,25.120686 L26.3919737,25.6097148 C24.6435143,26.7916584 24.0511657,28.1165889 23.7164427,28.5557987 L21.0046853,27.1175061 L20.3279825,28.7591464 L23.2557052,29.6805288 L23.0783699,30.546605 C22.669255,32.5521182 23.1881278,34.0072941 23.2543467,34.5205422 L20.3256952,35.4419246 L20.9969524,37.0835649 L23.7174181,35.6452723 L24.2009132,36.3833845 C25.3230037,38.1004436 26.7081771,38.7553681 27.1186504,39.0734703 L25.6917702,41.8133985 L27.3209146,42.4902724 L28.2352837,39.5374024 L29.0956847,39.716098 C31.0854679,40.1288071 32.5463336,39.6032143 33.0384441,39.538315 L33.953266,42.4902724 L35.581946,41.8133751 L34.1555303,39.0725109 L34.8880241,38.5853072 C36.6346606,37.4239558 37.2270092,36.0729927 37.5535696,35.6410954 L40.269507,37.082079 L40.9462097,35.4404387 L38.018487,34.5190563 L38.1958224,33.6529801 C38.6058313,31.6460629 38.0901434,30.2050909 38.0221097,29.6790429 L40.9487642,28.7577073 L40.277507,27.116067 L37.5570413,28.5543596 L37.0735461,27.8162474 C35.9645761,26.1210675 34.551304,25.4442053 34.1558089,25.1384467 L35.583618,22.3939555 L33.9535447,21.7120623 Z M30.6369965,28.2490272 C32.6816514,28.2490272 34.3447477,29.9249989 34.3447477,31.9849056 C34.3447477,34.0438727 32.6811851,35.7198444 30.6369965,35.7198444 C28.5923416,35.7198444 26.9297116,34.0438727 26.9297116,31.9849056 C26.9297116,29.9249989 28.592808,28.2490272 30.6369965,28.2490272 Z M30.6367689,30.233463 C29.6787241,30.233463 28.8993306,31.019103 28.8993306,31.9851321 C28.8993306,32.950256 29.6787241,33.7354086 30.6367689,33.7354086 C31.5957353,33.7354086 32.3751287,32.9498034 32.3751287,31.9851321 C32.3751287,31.0186156 31.5952629,30.233463 30.6367689,30.233463 Z M53.6024741,11.9066148 C57.1301837,11.9066148 60,14.7920177 60,18.3394607 L60,19.490356 C60,20.6508273 59.0607389,21.5953307 57.9067345,21.5953307 L44.4820909,21.5953307 C43.3280865,21.5953307 42.3892894,20.6508156 42.3892894,19.490356 L42.3892894,18.3394607 C42.3892894,14.7920177 45.2586417,11.9066148 48.7863513,11.9066148 L53.6024741,11.9066148 Z M53.6699749,13.8910506 L48.8348251,13.8910506 C46.3666547,13.8910506 44.3589083,15.9180934 44.3589083,18.4107718 L44.3589083,19.5710036 C44.3589083,19.6573508 44.4284994,19.7276265 44.5135591,19.7276265 L57.9909149,19.7276265 C58.0764252,19.7276265 58.1460197,19.6573555 58.1460197,19.5710036 L58.146241,18.4107718 C58.146241,15.9179759 56.1384946,13.8910506 53.6699749,13.8910506 Z M46.0975938,5.09248959 C46.0490713,7.93247576 48.2516597,11.2724348 51.1643794,11.3229572 L51.2296805,11.3229572 C54.0870249,11.3229572 56.3595035,8.06957452 56.4075651,5.27159307 C56.4565415,2.41433829 54.1837286,0.0506390304 51.2510412,0 C48.4576629,0 46.1461778,2.28482372 46.0976518,5.09248959 L46.0975938,5.09248959 Z M51.3071942,1.98455326 C53.063989,2.01529541 54.4683895,3.49922555 54.4382467,5.29228274 C54.4072376,7.12715639 52.8904955,9.45525292 51.2298814,9.45525292 L51.1979738,9.45525292 C49.5033053,9.42542815 48.035513,7.0399996 48.0669213,5.1811637 C48.0965821,3.41782439 49.5243592,1.9844358 51.3062347,1.9844358 L51.3071942,1.98455326 Z M53.6025901,50.311284 L48.7863513,50.311284 C45.2586417,50.311284 42.3892894,53.1978086 42.3892894,56.7444435 L42.3892894,57.8952279 C42.3892894,59.0555758 43.3280865,60 44.4820909,60 L57.9067345,60 C59.0607389,60 60,59.0555875 60,57.8952279 L60,56.7444435 C60,53.1973421 57.1301837,50.311284 53.6024741,50.311284 L53.6025901,50.311284 Z M58.1460197,57.975695 C58.1460197,58.0620347 58.0764252,58.1322957 57.9909149,58.1322957 L44.5135591,58.1322957 C44.4284994,58.1322957 44.3589083,58.0620299 44.3589083,57.975695 L44.3589083,56.8156267 C44.3589083,54.3232999 46.3666547,52.2957198 48.8348251,52.2957198 L53.6699749,52.2957198 C56.1384946,52.2957198 58.146241,54.3232999 58.146241,56.8156267 L58.1460197,57.975695 Z M3.70830439,5.09248959 C3.65978183,7.93247576 5.86237279,11.2724348 8.77509585,11.3229572 L8.84039704,11.3229572 C11.6977447,11.3229572 13.9702259,8.06957452 14.0182876,5.27159307 C14.0654496,2.50639864 11.9272566,0.0520391879 8.86175778,0 C6.06837626,0 3.75688847,2.28482372 3.70836243,5.09248959 L3.70830439,5.09248959 Z M8.91789222,1.98455326 C10.6732996,2.01437803 12.0798805,3.49135559 12.0489325,5.29228274 C12.0179235,7.12715639 10.5011873,9.45525292 8.84057974,9.45525292 L8.80867224,9.45525292 C7.11401034,9.42542815 5.64622375,7.0399996 5.67763195,5.1811637 C5.70729256,3.41782439 7.13506419,1.9844358 8.91693271,1.9844358 L8.91783159,1.9844358 L8.91789222,1.98455326 Z M2.09346986,21.5953307 L15.5179367,21.5953307 C16.6719258,21.5953307 17.6107106,20.6508273 17.6107106,19.490356 L17.6107106,18.3394607 C17.6107106,14.7920177 14.7409322,11.9066148 11.213269,11.9066148 L6.39744161,11.9066148 C2.86977845,11.9066148 0,14.7920177 0,18.3394607 L0,19.490356 C0,20.6508156 0.938784772,21.5953307 2.09323788,21.5953307 L2.09346986,21.5953307 Z M1.96961895,18.4107718 C1.96961895,15.9180934 3.97736535,13.8910506 6.44588501,13.8910506 L11.2806855,13.8910506 C13.7492052,13.8910506 15.7569516,15.9179759 15.7569516,18.4107718 L15.7569516,19.5710036 C15.7569516,19.6573555 15.687357,19.7276265 15.6023009,19.7276265 L2.12494507,19.7276265 C2.03943012,19.7276265 1.9698402,19.6573508 1.9698402,19.5710036 L1.96961895,18.4107718 Z M3.70830439,43.4971588 C3.65978183,46.337145 5.86237279,49.6771041 8.77509585,49.7276265 L8.84039704,49.7276265 C11.6977447,49.7276265 13.9702259,46.4742438 14.0182876,43.6762623 C14.0654496,40.9110679 11.9272566,38.4567084 8.86175778,38.4046693 C6.06837626,38.4046693 3.75688847,40.689493 3.70836243,43.4971588 L3.70830439,43.4971588 Z M8.91789222,40.3892225 C10.6732996,40.4190473 12.0798805,41.8960249 12.0489325,43.696952 C12.0179235,45.5318257 10.5011873,47.8599222 8.84057974,47.8599222 L8.80867224,47.8599222 C7.11401034,47.8300974 5.64622375,45.4446689 5.67763195,43.585833 C5.70729256,41.8224937 7.13506419,40.3891051 8.91693271,40.3891051 L8.91783159,40.3891051 L8.91789222,40.3892225 Z M2.09346025,60 L15.5179354,60 C16.6719253,60 17.6107106,59.0555875 17.6107106,57.8952279 L17.6102576,56.7444435 C17.6102576,53.1973421 14.7404773,50.311284 11.212812,50.311284 L6.39744557,50.311284 C2.86978023,50.311284 0,53.1973421 0,56.7444435 L0,57.8952279 C0,59.0555758 0.938785353,60 2.09323918,60 L2.09346025,60 Z M1.96961895,56.8156267 C1.96961895,54.3232999 3.97736535,52.2957198 6.44588501,52.2957198 L11.2806855,52.2957198 C13.7492052,52.2957198 15.7569516,54.3232999 15.7569516,56.8156267 L15.7569516,57.975695 C15.7569516,58.0620347 15.687357,58.1322957 15.6023009,58.1322957 L2.12494507,58.1322957 C2.03943012,58.1322957 1.9698402,58.0620299 1.9698402,57.975695 L1.96961895,56.8156267 Z"/>
    <path fill="#64C5F0" d="M36.6604202,5.81443873 L37.8107111,6.96940636 L34.1351657,6.96940636 C32.5219962,6.96940636 31.100381,7.76626556 30.2074283,8.97823335 C29.3144175,7.76626556 27.8927443,6.96940636 26.2796909,6.96940636 L24.1587685,6.96940636 L25.3090593,5.81443873 L23.9360008,4.43579767 L20.4415551,7.94398429 L23.9360008,11.453104 L25.3090593,10.0744629 L24.1583154,8.91857389 L26.2797025,8.91857389 C27.9100644,8.91857389 29.236425,10.2503272 29.236425,11.8877842 L29.236425,17.2762646 L31.178571,17.2762646 L31.178571,11.8877842 C31.178571,10.2503272 32.5049317,8.91857389 34.1352935,8.91857389 L37.8113035,8.91857389 L36.6605596,10.0744629 L38.0336182,11.453104 L41.5280639,7.94398429 L38.0336182,4.43579767 L36.6604202,5.81443873 Z M37.926476,58.7159533 L41.4122039,55.2077667 L37.926476,51.698647 L36.5568428,53.077288 L37.7047159,54.2331771 L34.0378766,54.2331771 C32.411582,54.2331771 31.0885303,52.9014238 31.0885303,51.2639668 L31.0885303,45.8754864 L29.1512294,45.8754864 L29.1512294,51.2639668 C29.1512294,52.9014238 27.8281777,54.2331771 26.2018832,54.2331771 L23.1063037,54.2331771 L24.2541768,53.077288 L22.8845436,51.698647 L19.3988157,55.2077667 L22.8845436,58.7159533 L24.2541768,57.3373122 L23.1067556,56.1823446 L26.2018716,56.1823446 C27.8110167,56.1823446 29.2290853,55.3854854 30.1198103,54.1735176 C31.0105933,55.3854854 32.4287198,56.1823446 34.0377491,56.1823446 L37.7041249,56.1823446 L36.5567038,57.3373122 L37.926476,58.7159533 Z M45.9809475,33.5019455 L56.292482,33.5019455 L56.292482,35.4863813 L45.9809475,35.4863813 L45.9809475,33.5019455 Z M52.0056643,29.0661479 L56.4083419,29.0661479 L56.4083419,31.0505837 L52.0056643,31.0505837 L52.0056643,29.0661479 Z M45.9809475,24.5136187 L56.292482,24.5136187 L56.292482,26.4980545 L45.9809475,26.4980545 L45.9809475,24.5136187 Z M45.9809475,29.0661479 L49.5726056,29.0661479 L49.5726056,31.0505837 L45.9809475,31.0505837 L45.9809475,29.0661479 Z M3.59165808,24.5136187 L13.9031926,24.5136187 L13.9031926,26.4980545 L3.59165808,26.4980545 L3.59165808,24.5136187 Z M9.61637487,29.0661479 L14.0190525,29.0661479 L14.0190525,31.0505837 L9.61637487,31.0505837 L9.61637487,29.0661479 Z M3.59165808,33.5019455 L13.9031926,33.5019455 L13.9031926,35.4863813 L3.59165808,35.4863813 L3.59165808,33.5019455 Z M3.59165808,29.0661479 L7.18331617,29.0661479 L7.18331617,31.0505837 L3.59165808,31.0505837 L3.59165808,29.0661479 Z"/>
  </g>
</svg>
