<svg xmlns="http://www.w3.org/2000/svg" viewBox="0 0 60 60">
  <g fill="none">
    <path fill="#363563" d="M51.2527825,31.9626168 C52.6356009,31.9626168 53.7609104,33.084571 53.7609104,34.463516 C53.7609104,34.702448 53.7161452,34.9286985 53.653387,35.1474992 C55.6441377,35.4616239 56.8646311,37.2852056 56.5662039,39.136234 L56.2010625,40.8306481 L58.1259754,40.8306481 L58.1259754,43.3145191 C58.1259754,44.6732992 57.2123356,45.8114861 55.9698438,46.1843244 L56.3863296,51.2994945 C57.3330007,51.7113071 57.9978951,52.6517098 57.9978951,53.7457243 L57.9974524,54.0485455 C59.1520968,54.3995273 60,55.4589702 60,56.7236473 L60,60 L42.5046729,60 L42.5046729,56.7236473 C42.5046729,55.4589702 43.3530367,54.3995049 44.5076699,54.0485455 L44.5076699,53.7457243 C44.5076699,52.6512169 45.1725867,51.7108366 46.1192353,51.2990464 L46.5348449,46.1838763 C45.2919935,45.8106011 44.3782638,44.672851 44.3782638,43.314071 L44.3782638,40.8306481 L46.3036261,40.8306481 L45.9485739,39.1848538 C45.6303953,37.2257191 46.9040084,35.4551375 48.852178,35.1474992 C48.7889805,34.9286873 48.7446545,34.7020111 48.7446545,34.463516 C48.7446545,33.084683 49.8698517,31.9626168 51.2527825,31.9626168 Z M14.0685826,37.3457944 L13.7910677,40.4254105 C14.3552444,40.5933559 14.8979849,40.8178668 15.4161804,41.0989432 L17.3977404,38.7266487 L21.2759013,42.5985638 L18.8979394,44.5823422 C19.1793937,45.0997837 19.4047322,45.644391 19.5717664,46.2104953 L22.6542056,45.933808 L22.6542056,51.4119864 L19.5717664,51.1352991 C19.4047322,51.7014146 19.178956,52.2455841 18.8979394,52.7634522 L21.2759013,54.7472306 L17.3977404,58.6191457 L15.4161804,56.2468512 C14.898041,56.5283654 14.3552893,56.7528763 13.7910677,56.9203839 L14.0685826,60 L8.58584745,60 L8.86336238,56.9195981 C8.30128438,56.7529661 7.75853266,56.5275796 7.23858638,56.2451898 L5.25612847,58.6191681 L1.37796762,54.7467703 L3.7567151,52.762992 C3.47526084,52.2455505 3.24992236,51.7009431 3.08288816,51.1348389 L0,51.4115261 L0,45.9333478 L3.08288816,46.210035 C3.24992236,45.6439195 3.47569855,45.09975 3.7567151,44.5818819 L1.37796762,42.5981036 L5.25612847,38.7261885 L7.23858638,41.1001668 C7.75857755,40.817777 8.30132928,40.5923905 8.86336238,40.4261963 L8.58584745,37.3457944 L14.0685826,37.3457944 Z M12.0741086,39.2523364 L10.6932819,39.2523364 L10.9359337,41.9450082 L10.0985023,42.105058 C8.33966431,42.4395877 7.34402856,43.3572595 6.90223152,43.6135935 L5.17017733,41.5391039 L4.19514708,42.5130109 L6.2748275,44.2466674 L5.79435155,44.9523653 C4.77492552,46.4516709 4.73580772,47.7804698 4.60348693,48.2830299 L1.90654206,48.040327 L1.90654206,49.4173918 L4.60335188,49.175263 L4.76292909,50.0124316 C5.10324043,51.8011301 6.01538511,52.7666627 6.27474872,53.2116255 L4.1950683,54.945282 L5.17009856,55.919189 L6.90215274,53.8446994 L7.60638565,54.3195695 C9.12833359,55.3462899 10.4290454,55.3792701 10.9359,55.5129357 L10.6932481,58.2056075 L12.0740749,58.2056075 L11.831423,55.5129357 L12.6688545,55.352886 C14.4456983,55.0156548 15.4040506,54.1103196 15.862987,53.8425495 L17.5962791,55.9187275 L18.5713093,54.9448205 L16.4924167,53.211164 L16.9724537,52.5054661 C17.9931965,51.0025586 18.0301198,49.6800067 18.1633184,49.1748015 L20.8598131,49.4175044 L20.8598131,48.0404395 L18.1633184,48.2831424 L18.0037412,47.4459739 C17.6634298,45.6577255 16.7517353,44.6917428 16.4923717,44.2467799 L18.5712643,42.5131235 L17.5962341,41.5392164 L15.862942,43.6153945 L15.1582702,43.1365734 C13.6562413,42.1156049 12.3611675,42.0843919 11.8314567,41.9450082 L12.0741086,39.2523364 Z M57.2625263,55.7383178 L45.3541608,55.7387582 C44.8337775,55.7387582 44.411215,56.1610876 44.411215,56.6811838 L44.411215,58.0934579 L58.2056075,58.0934579 L58.2056075,56.6807433 C58.2056075,56.1606471 57.7829096,55.7383178 57.2625263,55.7383178 Z M55.3853439,52.9345794 L47.2306451,52.9345794 C46.7893818,52.9345794 46.4299065,53.3078861 46.4299065,53.7670976 L46.4299065,53.9439252 L56.1869159,53.9439252 L56.1869159,53.7670976 C56.1869159,53.3078861 55.8274857,52.9345794 55.3853439,52.9345794 Z M11.3271029,44.635514 C13.5534156,44.635514 15.364486,46.4465844 15.364486,48.6728972 C15.364486,50.89921 13.5534156,52.7102804 11.3271029,52.7102804 C9.10079017,52.7102804 7.28928225,50.89921 7.28971971,48.6728972 C7.28971971,46.4465844 9.10079017,44.635514 11.3271029,44.635514 Z M54.1151071,46.317757 L48.3882541,46.317757 L48,51.0280374 L54.5046729,51.0280374 L54.1151071,46.317757 Z M11.3831776,46.5420561 C10.1774659,46.5420561 9.19626168,47.5228191 9.19626168,48.728972 C9.19626168,49.9351249 10.1774659,50.9158879 11.3831776,50.9158879 C12.5888892,50.9158879 13.5700935,49.9351249 13.5700935,48.728972 C13.5700935,47.5228191 12.5888779,46.5420561 11.3831776,46.5420561 Z M56.1869159,42.728972 L46.2056075,42.728972 L46.2061687,43.3560107 C46.2061687,43.9996306 46.716918,44.5233645 47.3465048,44.5233645 L55.0474776,44.5233645 C55.6757063,44.5233645 56.1869159,43.9996766 56.1869159,43.3560107 L56.1869159,42.728972 Z M35.1685838,9.30841121 C37.5525093,9.30841121 39.5301914,11.077768 39.8562227,13.3697848 C40.9057108,13.7694001 41.7571704,14.586247 42.1958352,15.6237003 C44.2585421,16.2680604 45.4513799,18.4213437 44.9675832,20.5006656 C44.4729495,22.6336656 46.0930196,22.6660517 46.0934579,25.3853633 C46.0934579,26.7988092 45.5111182,28.1532092 44.5110924,29.1201864 C45.7591475,31.3662575 44.6407779,34.2720413 42.1485942,35.0656688 C41.7024355,36.107515 40.8426742,36.9261101 39.7869935,37.3222739 C39.0893166,41.8853518 33.6361292,42.6365076 31.3262456,39.405518 C28.8209363,42.902208 23.4724845,41.4856244 22.8861398,37.3130847 C21.8428218,36.9133574 20.9926187,36.0983035 20.5504538,35.0656688 C18.0801842,34.2795495 16.9320475,31.3987557 18.1893018,29.1237724 C16.3829145,27.3941979 16.0578032,24.5808657 17.5065568,22.4494347 C17.9425964,21.8072038 17.8352244,21.1506401 17.7217271,20.4555044 C17.311131,17.9639041 18.6831502,16.1953878 20.5026743,15.6232521 C20.9417653,14.5848798 21.7954126,13.7663072 22.848457,13.366647 C23.4706335,9.17875476 28.8349706,7.81954721 31.3490304,11.2672659 C32.2106091,10.0858457 33.5962026,9.30841121 35.1685838,9.30841121 Z M53.1004119,37.0093458 L49.3985017,37.0093458 C48.4018526,37.0093458 47.6387037,37.913037 47.7964117,38.9153164 L48.227075,40.9345794 L54.2722872,40.9345794 L54.7116984,38.8661132 C54.8518883,37.9556949 54.1229233,37.0093458 53.1004119,37.0093458 Z M27.5398412,11.2149533 C25.4071681,11.2149533 24.1550345,13.5193989 24.9271211,14.7363333 C25.5977611,15.7894026 23.9036453,17.0211809 23.1459855,15.3572506 C22.7481456,15.60632 22.4412316,15.9716128 22.2619764,16.4125012 C23.4091826,18.5120737 25.6013202,17.6491231 25.2572479,19.1854202 C24.8616016,20.9442085 21.7745761,19.1460451 20.7773237,17.5673528 C20.0292893,17.9382834 19.5278203,18.7038703 19.5278203,19.5852109 C19.5278203,19.7578122 19.5654195,19.9548775 19.6003953,20.1702991 C19.6873983,20.7007434 19.7988878,21.4050865 19.6476132,22.1723849 C20.9723286,21.914087 22.9799507,21.7650883 22.8103208,23.1048459 C22.6213956,24.59313 20.7707561,23.303287 18.6407579,24.5035541 C17.9976509,26.8123623 19.8391194,28.0026805 19.9046993,28.0961895 C20.263635,28.1905721 21.359659,28.4304588 22.25373,28.0791486 C22.7359819,27.8921396 23.2772282,28.1267789 23.4669705,28.6069976 C24.0437074,30.0721166 21.493552,30.3220596 19.8828744,30.0100684 C19.3109838,31.0199483 19.5737779,32.3106773 20.5810809,32.9897063 C21.0344792,31.4066625 22.5803759,29.7470836 23.3926875,31.0667062 C23.664178,31.5058496 23.5273415,32.081754 23.0875194,32.3531061 C22.523967,32.6999866 22.3036194,33.6814203 22.2441606,34.1415376 C22.4426664,34.7375882 22.8719902,35.2204244 23.4294205,35.4808477 C24.8403162,33.7426865 26.5309064,34.0423618 26.5309064,35.1854679 C26.5309064,35.7023882 26.1120698,36.1205576 25.595301,36.1205576 C25.3745114,36.1205576 25.0151392,36.462259 24.7576278,36.8284244 C25.0546121,40.4697125 30.3918735,40.3425267 30.3923107,36.5300847 L30.3923107,34.7682761 C28.8901533,34.9670529 27.0613611,34.1827964 27.8203304,33.0112775 C28.1010433,32.5786892 28.6812051,32.4537182 29.1135955,32.7338067 C29.5224038,32.9986037 30.018176,32.9627702 30.3925234,32.8749415 L30.3925234,17.8352483 C30.0147288,17.7408713 29.4984076,17.6928047 29.0747584,17.9672106 C28.0346688,18.6397181 27.0203751,17.0675249 28.0587142,16.3967959 C28.8535882,15.8829384 29.7035057,15.8423016 30.3925234,15.9401799 L30.3925234,14.0656155 C30.3925234,12.4939704 29.1129128,11.2149533 27.5398412,11.2149533 Z M32.2990654,14.0455106 L32.2990654,15.9207924 C33.7728828,15.7119181 35.6955065,16.4605988 34.9115849,17.6702126 C34.7331083,17.9468396 34.4321384,18.0976162 34.1250428,18.0976162 C33.5261267,18.0976162 33.4456067,17.5290575 32.2990654,17.8153059 L32.2990654,32.8582836 C32.673556,32.9461294 33.169196,32.9819636 33.5786494,32.7166921 C35.1692263,31.6884308 36.1810451,35.2645671 32.2990654,34.7515105 L32.2990654,36.6241072 C32.2990654,40.1268522 37.5449902,40.6555827 37.9242627,36.792359 C37.6674724,36.4340059 37.3170706,36.1044946 37.0996556,36.1044946 C36.5821442,36.1044946 36.1634964,35.6862649 36.1634964,35.1692703 C36.1634964,34.0251716 37.8538553,33.7262363 39.266818,35.4646926 C39.8250374,35.2037396 40.2546264,34.7208338 40.4532273,34.1247421 C40.3893601,33.6331547 40.1618773,32.6773897 39.6089326,32.3369481 C39.1684134,32.0659932 39.0319215,31.4895695 39.3027104,31.0503629 C40.1233643,29.7219357 41.6702208,31.4166481 42.1164289,32.9733043 C43.1260751,32.292421 43.3867962,30.9909562 42.8181059,29.9932374 C42.4764281,30.0596643 42.0363457,30.119099 41.547705,30.119099 C37.8813934,30.119099 39.1736321,27.5677558 40.4426892,28.0624646 C41.3394955,28.4147025 42.439203,28.1725941 42.79311,28.0790716 C42.8754151,27.9802084 44.1869159,27.0707605 44.1869159,25.3747056 C44.1869159,24.6833842 44.0346783,24.2760737 43.821642,23.8753304 C43.161916,23.8661565 41.8928814,23.9465625 40.8906712,24.6248166 C40.4668272,24.913683 39.8823913,24.8061692 39.5910412,24.376584 C38.6767647,23.0327849 41.40302,22.169229 43.0246178,22.0333208 C42.9288181,21.5166729 42.923129,20.8900388 43.1129836,20.0736838 C43.3408808,19.0903971 42.9012576,18.0362698 41.9187351,17.5502986 C41.4183692,18.3413807 40.4091261,19.4592554 38.5560475,19.8739834 C38.0503509,19.9871693 37.5498953,19.6690248 37.4379066,19.166451 C37.0957808,17.6452598 39.3075595,18.435335 40.4336069,16.3905596 C40.2542568,15.9504803 39.9471611,15.5864438 39.5499481,15.3377749 C38.7931502,16.9992934 37.0949521,15.7712982 37.7677584,14.7163319 C37.9147392,14.4855856 37.9794833,14.189727 38.0013558,14.0358961 C37.9230756,10.2089136 32.2990654,10.3377959 32.2990654,14.0455106 Z M51.1962611,33.8691589 C50.8560606,33.8691589 50.5798688,34.1462203 50.5794393,34.4874921 C50.5794393,34.8231604 50.849188,35.0946168 51.1829458,35.1023728 L51.2095776,35.1028037 C51.5433354,35.0954793 51.8130841,34.8235913 51.8130841,34.4879231 C51.8130841,34.1466513 51.5364627,33.8691589 51.1962611,33.8691589 Z M24.4927724,23.4392523 C25.0162702,23.4392523 25.4405606,23.862024 25.4405606,24.3846333 C25.4405606,25.603923 26.4353561,26.595242 27.6577051,26.595242 C28.912322,26.5951967 28.9110748,28.4859813 27.6572062,28.4859813 C23.7433991,28.4859813 22.4913899,23.4392523 24.4927724,23.4392523 Z M38.6915888,23.8180111 C38.6915888,24.3411929 38.2689326,24.7644278 37.7464662,24.7644278 C36.5270349,24.7644278 35.535105,25.7582367 35.535105,26.9788169 C35.535105,27.5019988 35.1120079,27.9252336 34.5899824,27.9252336 C34.0679569,27.9252336 33.6448598,27.5019988 33.6448598,26.9788169 C33.6448598,23.0710468 38.6911472,21.8199775 38.6915888,23.8180111 Z M59.2085065,11.3234862 C58.8769013,12.3835264 58.5374332,13.4771511 58.4543146,14.9294588 C58.8497883,15.1201183 59.1743829,15.4564003 59.3209342,15.8897641 L59.9115073,17.6350409 C60.204162,18.4996191 59.747015,19.4362808 58.893084,19.7437025 L59.0370148,20.1687597 C59.5584446,21.7080514 58.7325114,23.3693445 57.1978994,23.890599 L56.6668159,24.0685747 C55.1546021,24.5832019 53.4720613,23.7846734 52.9453566,22.2283655 L52.8005523,21.8019986 C52.6369336,21.8536001 52.4689471,21.8850856 52.2979033,21.8850856 C51.5795822,21.8850856 50.9417601,21.4285821 50.7112156,20.7485846 L50.1206425,19.0016285 C49.9771496,18.5779035 50.0073424,18.1244226 50.2055104,17.7242963 L50.2418201,17.6661357 C49.4456764,16.7242012 48.5195336,15.9300163 47.4661244,15.3182402 C41.1243008,11.6362546 42.4156685,1.82766436 49.8665384,0.191761174 C55.5718244,-1.06473293 61.503873,3.98515119 59.2085065,11.3234862 Z M57.113,20.301 L57.0971464,20.3071731 C56.9905151,20.3441287 56.5351106,20.502194 56.0428674,20.6730822 L55.7126709,20.7877191 C55.1646579,20.9779857 54.6567438,21.1543749 54.6168224,21.1683454 L54.7566918,21.5913407 C54.9360594,22.1384547 55.5401537,22.4500868 56.0790474,22.2634636 L56.5999823,22.0843338 C57.1530387,21.8906342 57.4357937,21.2788184 57.2530101,20.7268591 L57.113,20.301 Z M9.51653744,3.14018692 L9.51653744,10.782528 L17.1588785,10.782528 L17.1588785,11.7196486 C17.1588785,16.4503173 13.3101304,20.2990654 8.57946167,20.2990654 C3.84874807,20.2990654 0,16.4502725 0,11.7196037 C0,6.98893499 3.84874807,3.14018692 8.57941683,3.14018692 L9.51653744,3.14018692 Z M57.6254933,16.7102804 L51.9252336,18.6006355 L52.393,19.957 L52.465388,19.9331273 C52.9371815,19.7767287 55.1808509,19.0326128 56.689181,18.5323777 L57.0643292,18.4079607 C57.2419145,18.3490651 57.40328,18.295549 57.542862,18.2492578 L57.9718231,18.1069999 C58.0434246,18.0832558 58.0858241,18.0691972 58.0934579,18.0666694 L57.6254933,16.7102804 Z M15.2523364,12.6728972 L9.00707271,12.6728972 L4.59813084,17.0486774 C5.71965564,17.88842 7.10994324,18.3925234 8.61949434,18.3925234 C11.9951552,18.3925234 14.7956524,15.9011286 15.2523364,12.6728972 Z M50.3012026,2.05175959 C44.5850437,3.31069727 43.5229566,10.8907919 48.4409837,13.7551134 C49.7551878,14.5202335 50.907785,15.5124671 51.877236,16.7102804 L53.3265843,16.2191657 L51.4881845,10.7739378 L49.6065941,11.4118182 L49.0073518,9.63573476 L54.5421324,7.75893626 L55.1413747,9.53501974 L53.2602318,10.1729002 L55.0986316,15.6176795 L56.5986673,15.1085976 C56.6699095,13.3058213 57.0807689,11.9905819 57.4479118,10.8143023 C59.3308449,4.77633625 54.5361238,1.11641095 50.3012026,2.05175959 Z M7.62616822,5.04672897 C4.39818776,5.50384971 1.90654206,8.30424618 1.90654206,11.680019 C1.90654206,13.1895701 2.41061739,14.5792978 3.25028354,15.7009346 L7.62616822,11.2924407 L7.62616822,5.04672897 Z M11.7050627,0 C16.4437427,0 20.2990654,3.85544323 20.2990654,8.59434131 L20.2990654,9.53271028 L10.7667939,9.53271028 L10.7663551,0 L11.7050627,0 Z M12.6728972,1.90654206 L12.6728972,7.62616822 L18.3925234,7.62616822 C17.9775297,4.66882638 15.6309213,2.32242493 12.6728972,1.90654206 Z"/>
    <path fill="#64C5F0" d="M32.635514 50.8598131C32.635514 50.3257149 32.2065455 49.9065421 31.682243 49.9065421 31.1579405 49.9065421 30.728972 50.3252702 30.728972 50.8598131 30.728972 51.3836708 31.1574958 51.8130841 31.682243 51.8130841 32.2065455 51.8126386 32.635514 51.3836708 32.635514 50.8598131zM27.0280374 50.8598131C27.0280374 50.3257149 26.5990688 49.9065421 26.0747664 49.9065421 25.5504639 49.9065421 25.1214953 50.3252702 25.1214953 50.8598131 25.1214953 51.3836708 25.5500191 51.8130841 26.0747664 51.8130841 26.5990688 51.8126386 27.0280374 51.3836708 27.0280374 50.8598131zM38.2429907 50.8598131C38.2429907 50.3257149 37.8149116 49.9065421 37.2897196 49.9065421 36.7658619 49.9065421 36.3364486 50.3252702 36.3364486 50.8598131 36.3364486 51.3836708 36.7654171 51.8130841 37.2897196 51.8130841 37.8149116 51.8126386 38.2429907 51.3836708 38.2429907 50.8598131zM38.2429907 4.76635514C38.2429907 4.23314646 37.8149116 3.81308411 37.2897196 3.81308411 36.7658619 3.81308411 36.3364486 4.23270172 36.3364486 4.76635514 36.3364486 5.29021289 36.7654171 5.71962617 37.2897196 5.71962617 37.8149116 5.71962617 38.2429907 5.29021289 38.2429907 4.76635514zM30.728972 4.76635514C30.728972 5.29021289 31.1574958 5.71962617 31.682243 5.71962617 32.2061007 5.71962617 32.635514 5.29065763 32.635514 4.76635514 32.635514 4.23314646 32.2065455 3.81308411 31.682243 3.81308411 31.1574958 3.81308411 30.728972 4.23314646 30.728972 4.76635514zM25.1214953 4.76635514C25.1214953 5.29021289 25.5500191 5.71962617 26.0747664 5.71962617 26.5986241 5.71962617 27.0280374 5.29065763 27.0280374 4.76635514 27.0280374 4.23314646 26.5990688 3.81308411 26.0747664 3.81308411 25.5500191 3.81308411 25.1214953 4.23314646 25.1214953 4.76635514zM11.1028037 28.6539832C11.1028037 29.1806322 10.6759593 29.6074766 10.1493103 29.6074766 9.6231061 29.6074766 9.19626168 29.1806322 9.19626168 28.6539832 9.19626168 28.127779 9.6231061 27.7009346 10.1493103 27.7009346 10.6759593 27.7009346 11.1028037 28.127779 11.1028037 28.6539832M11.1028037 34.2619047C11.1028037 34.7881089 10.6759593 35.2149533 10.1493103 35.2149533 9.6231061 35.2149533 9.19626168 34.7881089 9.19626168 34.2619047 9.19626168 33.7352556 9.6231061 33.3084112 10.1493103 33.3084112 10.6759593 33.3084112 11.1028037 33.7352556 11.1028037 34.2619047M11.1028037 23.0465066C11.1028037 23.5731556 10.6759593 24 10.1493103 24 9.6231061 24 9.19626168 23.5731556 9.19626168 23.0465066 9.19626168 22.5198575 9.6231061 22.0934579 10.1493103 22.0934579 10.6759593 22.0934579 11.1028037 22.5198575 11.1028037 23.0465066M56.411215 26.0749888C56.411215 26.601193 55.9844701 27.0280374 55.4579439 27.0280374 54.9314177 27.0280374 54.5046729 26.601193 54.5046729 26.0749888 54.5046729 25.5483397 54.9314177 25.1214953 55.4579439 25.1214953 55.9844701 25.1214953 56.411215 25.5483397 56.411215 26.0749888M56.411215 31.682243C56.411215 32.2087692 55.9844701 32.635514 55.4579439 32.635514 54.9314177 32.635514 54.5046729 32.2087692 54.5046729 31.682243 54.5046729 31.1557168 54.9314177 30.728972 55.4579439 30.728972 55.9844701 30.728972 56.411215 31.1557168 56.411215 31.682243"/>
  </g>
</svg>
