<svg xmlns="http://www.w3.org/2000/svg" viewBox="0 0 60 60">
  <g fill="none">
    <path fill="#363563" d="M0.277667106,56.1481418 L3.88168017,59.7230875 C4.25397211,60.0923042 4.86006375,60.0923042 5.23285731,59.7230875 L7.18962446,57.782149 L9.76144399,56.7276361 L11.3958074,58.3489435 C12.3982459,59.3446326 14.0192708,59.3406766 15.0163511,58.3498215 L17.2247254,56.1591571 C17.8913874,55.4993167 18.1011323,54.564598 17.8749024,53.7213518 L23.9425451,51.2365684 C24.9391921,51.7677809 26.0694064,51.5456351 26.7917367,50.8291624 C27.7233672,49.9054689 27.7233672,48.4018092 26.7917367,47.4782056 L12.6506625,33.4510756 C11.7065713,32.512457 10.1724403,32.5142215 9.2309941,33.4501976 C8.46057688,34.2132101 8.3372244,35.368209 8.83954946,36.2691101 L2.2299311,52.8867806 L0.277154087,54.8236732 C-0.0924701544,55.1911253 -0.0924701544,55.7816 0.277154087,56.1486138 L0.277667106,56.1481418 Z M4.58269362,57.7570093 L2.28130716,55.4945157 L3.05977191,54.728972 L5.36115836,56.9914656 L4.58269362,57.7570093 Z M6.95545435,55.8413474 L4.22047273,53.1323083 L7.51754794,44.8598131 L15.3991919,52.6631445 C15.2983748,52.7013247 6.40854939,56.0471683 6.95545435,55.8413474 Z M15.8929288,54.8077878 L13.6937373,57.0131451 C13.4490447,57.2570011 13.0279085,57.2578945 12.7814343,57.0122616 L11.7489979,55.9767389 L14.3746593,55.0171936 L16.0836033,54.3925234 C16.0716342,54.5436073 16.0077999,54.6924859 15.8929855,54.8077978 L15.8929288,54.8077878 Z M17.2459289,51.9252336 L8.21287244,42.9432966 L10.2562658,37.7943925 L22.3573742,49.8264356 L17.2459289,51.9252336 Z M10.5286718,34.8011954 C10.723981,34.6065991 11.0454893,34.6035292 11.245262,34.8020739 L25.4051461,48.8382003 C25.60001,49.0319195 25.60001,49.3468609 25.4051461,49.5405801 C25.214289,49.729464 24.8798468,49.729464 24.6867637,49.5405801 C20.6890279,45.5775841 14.9617178,39.900161 10.5268796,35.5044537 C10.3311252,35.3107345 10.3311252,34.9962317 10.5277715,34.8016353 L10.5286718,34.8011954 Z M28.2889395,60 L35.2471218,60 L35.2471218,49.0093458 L28.2889395,49.0093458 L28.2889395,60 Z M30.2281051,50.9158879 L33.3079563,50.9158879 L33.3079563,58.0930207 L30.2281051,58.0934579 L30.2281051,50.9158879 Z M57.0893355,27.6783426 L58.1304452,27.7918929 L58.2406221,26.855409 C59.2183896,18.524386 58.540821,13.0053513 56.226164,10.4542021 C55.0909374,9.20298293 53.599752,8.71755749 52.1112615,8.93900128 C50.9220678,6.89247006 48.6707759,6.4780907 48.5645775,6.46013277 L47.5310501,6.28037383 L47.44719,7.30803913 C47.3677912,8.27827271 46.2650762,9.22527321 45.7843286,9.55457686 L36.1596704,13.9384456 L38.1442101,19.0321017 L40.5003301,19.0321017 L43.1204616,18.0272318 L45.7749648,19.2512896 L46.8562244,18.8602106 C45.059987,21.6591793 42.5864778,25.656728 42.5566737,25.7044288 L42.2546934,26.1928397 L44.1482223,29.2425461 L42.5892755,29.2425461 L42.5892755,33.42248 C41.2488918,33.8609006 40.2728942,35.091109 40.2728942,36.5533339 L40.2728942,39.4179613 L47.2533265,39.4179613 L47.2533265,60 L54.1944767,60 L54.1940307,39.4168389 L60,39.4168389 L60,36.5522115 C60,35.0900988 59.0244592,33.860317 57.6849891,33.4213577 L57.6849891,29.2414237 L54.5175362,29.2414237 C55.4007414,27.873927 56.5551751,27.677512 57.0894787,27.677512 L57.0893355,27.6783426 Z M52.2433377,58.0934579 L49.1634865,58.0934579 L49.1634865,39.364486 L52.2433377,39.364486 L52.2433377,58.0934579 Z M58.0602654,37.5700935 L42.2053042,37.5700935 L42.2053042,36.5647382 C42.2053042,35.7591163 42.8592246,35.1028037 43.6637967,35.1028037 L56.6031385,35.1028037 C57.4064247,35.1028037 58.0608344,35.7586255 58.0608344,36.5647382 L58.0602654,37.5700935 Z M55.7790329,33.1962617 L44.4866754,33.1962617 L44.4866754,31.0654206 L45.3026792,31.0654206 L45.3147386,31.0848028 L53.6963658,31.0848028 L53.7030652,31.0654206 L55.7794632,31.0654206 L55.7790329,33.1962617 Z M46.3368059,29.271028 L44.4476262,26.221451 C45.3303856,24.7943881 47.9332846,20.6022855 49.3216507,18.4967534 C49.5884856,18.0909061 49.6098206,17.5763713 49.3763508,17.1542887 C49.1442051,16.7322286 48.6999393,16.470131 48.2173868,16.470131 C48.1022076,16.470131 47.985241,16.4859085 47.7891279,16.5415706 L45.8182059,17.2542157 L43.1512224,16.0195745 L40.1116171,17.1889157 L39.4294222,17.1889157 L38.5551102,14.9379733 C44.3729276,12.0694859 47.6406826,11.7595914 49.0001315,8.63551402 C50.6424906,9.4502717 50.6731155,10.7971458 50.9644504,11.2914959 C51.1788018,11.2796623 53.0990846,9.93680153 54.7281235,11.7385428 C56.0186949,13.1656058 57.3252049,16.7808917 56.355341,25.8835089 C55.2524466,26.04962 53.3917856,26.7241285 52.2911113,29.271028 L46.3368059,29.271028 Z M13.0655998,2.46728972 C16.2443437,2.46728972 19.2840325,3.63540712 21.6258201,5.75555255 L20.3325396,7.13549366 C18.3448971,5.33504824 15.7637018,4.34361898 13.0660565,4.34361898 C7.17128648,4.34361898 2.37582777,9.0631231 2.37582777,14.8639721 C2.37582777,20.6599942 7.17128648,25.3760184 13.0660565,25.3760184 C18.966649,25.3760184 23.7665602,20.6599942 23.7665602,14.8639721 C23.7665602,13.6299615 23.5516071,12.4167179 23.1283911,11.2603872 L24.9229777,10.6245681 C25.4224571,11.9852014 25.6748683,13.4116158 25.6748683,14.8639609 C25.6748683,21.6953036 20.0176792,27.2523364 13.0651546,27.2523364 C6.11742495,27.2523364 0.465715871,21.6956404 0.465715871,14.8639609 C0.466161121,8.02870047 6.11832686,2.46728972 13.0655998,2.46728972 Z M13.1796749,6.05607477 C15.1033527,6.05607477 16.9364011,6.64863537 18.4811034,7.76926746 L17.3463026,9.280138 C16.1329181,8.39966303 14.6913026,7.93394566 13.1792863,7.93394566 C9.29753019,7.93394566 6.13989617,11.0425487 6.13989617,14.8635775 C6.13989617,18.6802238 9.29753019,21.7848939 13.1792863,21.7848939 C17.0654996,21.7848939 20.228048,18.6802238 20.228048,14.8635775 C20.228048,14.2924683 20.1628701,13.7648575 20.029383,13.251293 L21.88026,12.7855757 C22.0539202,13.4531657 22.1387428,14.1331277 22.1387428,14.8639708 C22.1387428,19.7161064 18.1199567,23.6635514 13.1796749,23.6635514 C8.24476456,23.6635514 4.22997845,19.7161064 4.22997845,14.8639708 C4.22997845,10.0074527 8.24476456,6.05607477 13.1796749,6.05607477 Z M13.1337437,9.64485981 C13.6781483,9.64485981 14.2025627,9.72318268 14.6959355,9.87851045 L14.1209321,11.6734141 C13.8152405,11.5770442 13.4824825,11.528202 13.133755,11.528202 C11.28317,11.5282921 9.7786773,13.0252467 9.7786773,14.864533 C9.7786773,16.6998766 11.28317,18.1919874 13.1337437,18.1919874 C14.8711908,18.1919874 16.3118169,16.9000488 16.485289,15.1861377 L18.3744802,15.3735922 C18.103817,18.0537819 15.8508261,20.0747664 13.1337437,20.0747664 C10.2369763,20.0747664 7.88017246,17.7378094 7.88017246,14.8644316 C7.88017246,11.9866605 10.2365219,9.64485981 13.1337437,9.64485981 Z"/>
    <path fill="#363563" d="M37.6430088,60 L44.600744,60 L44.6002969,44.5233645 L37.6425617,44.5233645 L37.6430088,60 Z M39.5817272,46.4299065 L42.6615784,46.4299065 L42.6615784,58.0934579 L39.5817272,58.0934579 L39.5817272,46.4299065 Z"/>
    <path fill="#64C5F0" d="M21.3865325 32.8548881C20.9171668 32.615518 20.3334955 32.7904741 20.0859904 33.2448506L18.4762398 36.2047774C18.2278362 36.6604542 18.4096379 37.2232035 18.8794551 37.4625736 19.3537745 37.7041276 19.9347501 37.5235058 20.1799972 37.0726111L21.7897477 34.1126843C22.0381514 33.6565619 21.8568001 33.0938237 21.3865325 32.8548881zM22.0431417 39.4266889L25.3864551 36.13989C25.7583317 35.7742123 25.7583317 35.1819458 25.3864551 34.8163017 25.0145786 34.4506577 24.412272 34.4506241 24.0404296 34.8163017L20.6971161 38.1031006C20.3252395 38.4687783 20.3252395 39.0610449 20.6971161 39.4266889 21.0689927 39.792333 21.6712993 39.7923666 22.0431417 39.4266889zM23.816532 41.6353921L27.15974 40.1432819C27.6384752 39.9303136 27.850706 39.3757877 27.6331333 38.9051931 27.4164603 38.4346432 26.8540765 38.2242946 26.3735075 38.4398938L23.0302995 39.9320041C22.5515643 40.1449724 22.3393335 40.6994982 22.5569062 41.1700929 22.7767 41.6480764 23.3488679 41.8470618 23.816532 41.6353921z"/>
    <polygon fill="#64C5F0" points="49.498 24 47.909 22.968 50.426 19.29 52.015 20.322"/>
    <path fill="#64C5F0" d="M25.624082,2.77037268 C25.0891734,2.69301999 24.6280108,3.07362901 24.5649218,3.58872484 L24.2161638,6.40155019 L12.5253096,14.0893394 C12.0881337,14.3767764 11.9690756,14.9608765 12.2596352,15.3933652 C12.551082,15.827598 13.1446325,15.9418662 13.5778277,15.6561844 L25.0525848,8.11083664 L27.9239468,8.73537388 C28.4455257,8.84700817 28.9453469,8.51913512 29.0564095,8.01898102 C29.1697001,7.51223365 28.84493,7.0098743 28.3322339,6.89868894 L27.2526354,6.66355924 L29.1754449,5.39913799 L31.8202462,5.97445079 C32.341825,6.08608507 32.8416463,5.75821202 32.9527088,5.25805792 C33.0659994,4.75131056 32.7412293,4.2489512 32.2285332,4.13776584 L30.0253662,3.65826913 L30.3474647,1.05730579 C30.4114408,0.541332361 30.0409138,0.0728169195 29.5202221,0.00952834914 C28.9817536,-0.0656269687 28.5241509,0.312784675 28.4610619,0.827880504 L28.0852008,3.85650581 L26.3013759,5.0304666 L26.4515407,3.8183639 C26.5155168,3.30239047 26.1449898,2.83387503 25.6242981,2.77058646 L25.624082,2.77037268 Z"/>
  </g>
</svg>
