<svg xmlns="http://www.w3.org/2000/svg" viewBox="0 0 113 50">
  <g fill="none" transform="translate(1)">
    <path fill="#363463" d="M50.9581619 23.3244708C53.0375238 23.3244708 54.6904786 22.4616234 55.9195345 20.7334203L56.3258754 23.0109361 60.2889535 23.0109361 60.2889535.230761513 55.9195345.762516304 55.9195345 9.68696699C54.7130531 7.9612722 53.0600983 7.09591652 50.9581619 7.09591652 48.8160931 7.09591652 47.1204976 7.8283335 45.8713755 9.29567573 44.6222534 10.763018 43.9976924 12.7345239 43.9976924 15.2101936 43.9976924 17.6858633 44.6222534 19.6573693 45.8713755 21.1247115 47.1204976 22.5920538 48.8135848 23.3244708 50.9581619 23.3244708zM49.47577 11.7011137C50.1530049 10.8182001 51.1337413 10.374235 52.4255042 10.374235 53.7573994 10.374235 54.911207 10.8934484 55.8894351 11.9343835L55.8894351 18.4559045C54.9337815 19.5169058 53.7774656 20.0486606 52.4255042 20.0486606 51.1337413 20.0486606 50.1530049 19.6072038 49.47577 18.7217819 48.7985352 17.8388683 48.4624122 16.6675028 48.4624122 15.2101936 48.4599177 13.7553928 48.7985352 12.5865356 49.47577 11.7011137zM72.4892144 23.3244708C75.0476573 23.3244708 77.1696599 22.8779974 78.8552222 21.9825424L78.1378549 19.0804655C76.5350657 19.8505067 74.7993378 20.2342731 72.9256547 20.2342731 71.5937594 20.2342731 70.5277415 19.9056888 69.7276011 19.2510284 68.9274606 18.596368 68.4207886 17.6657971 68.2151099 16.4593157L79.449684 16.4593157C79.5123909 15.5864352 79.5424902 15.0346142 79.5424902 14.806361 79.5424902 12.5589445 78.9329788 10.7128524 77.7164643 9.26808468 76.4999498 7.82331695 74.5911508 7.0984248 71.9900672 7.0984248 69.4316244 7.0984248 67.3974115 7.83585833 65.8899368 9.31323367 64.3824621 10.790609 63.6274707 12.7570984 63.6274707 15.2101936 63.6274707 17.7285041 64.3824621 19.7100431 65.8899368 21.1548109 67.3974115 22.6020869 69.5971707 23.3244708 72.4892144 23.3244708zM71.897261 10.1560148C74.0393298 10.1560148 75.1329387 11.3098224 75.1730711 13.6199458L68.2151099 13.6199458C68.6089094 11.3098224 69.8379653 10.1560148 71.897261 10.1560148zM90.9927762 23.3244708C93.551219 23.3244708 95.6732216 22.8779974 97.358784 21.9825424L96.6414167 19.0804655C95.0386275 19.8505067 93.3028996 20.2342731 91.4292164 20.2342731 90.0973212 20.2342731 89.0313033 19.9056888 88.2311628 19.2510284 87.4310224 18.596368 86.9243504 17.6657971 86.7186716 16.4593157L97.9532457 16.4593157C98.0159526 15.5864352 98.046052 15.0346142 98.046052 14.806361 98.046052 12.5589445 97.4365406 10.7128524 96.2200261 9.26808468 95.0035116 7.82331695 93.0947126 7.0984248 90.493629 7.0984248 87.9351861 7.0984248 85.9009732 7.83585833 84.3934985 9.31323367 82.8860239 10.790609 82.1310324 12.7570984 82.1310324 15.2101936 82.1310324 17.7285041 82.8860239 19.7100431 84.3934985 21.1548109 85.9009732 22.6020869 88.1007324 23.3244708 90.9927762 23.3244708zM90.4008227 10.1560148C92.5428915 10.1560148 93.6365005 11.3098224 93.6766329 13.6199458L86.7186716 13.6199458C87.1124712 11.3098224 88.341527 10.1560148 90.4008227 10.1560148zM105.721381 13.3691181C106.263168 12.807264 107.043243 12.3507575 108.061603 11.9970904 109.079964 11.6434233 110.213705 11.4653356 111.462827 11.4653356L111.056486 7.09591652C109.952844 7.09591652 108.919434 7.43955052 107.951239 8.12431022 106.983044 8.81157821 106.220528 9.74716565 105.658674 10.9335808L105.31504 7.40694291 101.351961 7.40694291 101.351961 23.0109361 105.721381 23.0109361 105.721381 13.3691181z"/>
    <rect width="3.808" height="3.777" x="36.583" y="44.753" fill="#363463"/>
    <rect width="3.808" height="3.777" x="41.798" y="44.753" fill="#363463"/>
    <path fill="#363463" d="M37.7219825,42.9241497 C39.7010133,42.9241497 41.2285542,42.3798535 42.3071135,41.2912612 C43.3856727,40.2026688 43.9249523,38.6274707 43.9249523,36.5706833 L43.9249523,31.9855523 L40.1800943,31.9855523 L40.1800943,36.3022976 C40.1800943,37.3206582 39.9593659,38.0555834 39.5204174,38.5045651 C39.0814688,38.9535467 38.3615933,39.1792917 37.3632989,39.1792917 L36.9745159,39.1792917 C35.07575,39.1792917 34.1276211,38.2311628 34.1276211,36.3323969 L34.1276211,31.9855523 L30.3802548,31.9855523 L30.3802548,40.5588442 C30.3802548,42.4576101 30.0591953,43.8070633 29.4220929,44.6046955 C28.7824822,45.404836 27.6437243,46.0143473 26.0033109,46.4332297 L27.2323668,50 C29.3894853,49.3804555 31.0248821,48.4549012 32.1335407,47.2258453 C33.2421993,45.9967894 33.8868265,44.2936691 34.0674225,42.1139761 C34.7070332,42.6532557 35.4971406,42.9241497 36.4352363,42.9241497 L37.6341928,42.9241497 L37.7219825,42.9241497 L37.7219825,42.9241497 Z"/>
    <rect width="3.808" height="3.777" x="99.082" y="44.753" fill="#363463"/>
    <path fill="#363463" d="M107.010635,33.4378449 L104.898666,31.4462727 C103.664593,30.282432 102.204776,29.70302 100.521722,29.7055282 C98.5627571,29.7055282 96.9649844,30.4655363 95.7258955,31.983044 L97.494231,34.6518511 C98.3746363,33.8517106 99.2525334,33.4528946 100.132939,33.4528946 C101.030902,33.4528946 101.861142,33.8115782 102.62115,34.5314538 L103.664593,35.5573392 C104.023277,35.9160229 104.434634,36.1969499 104.893649,36.3976121 C104.552523,36.5380756 104.146182,36.7964282 103.674626,37.1776864 L102.651249,38.0104344 C101.730711,38.7905087 100.541788,39.1792917 99.0844788,39.1792917 L95.3973111,39.1792917 L94.1983546,39.1792917 L87.2153105,39.1792917 L86.016354,39.1792917 L79.0308016,39.1792917 L77.8318451,39.1792917 L70.8462928,39.1792917 L69.6473362,39.1792917 L62.6617839,39.1792917 L61.4628273,39.1792917 L80.2272499,39.1792917 L79.0282934,39.1792917 L72.042741,39.1792917 L70.8437845,39.1792917 L63.8281328,39.1792917 L63.4393499,39.1792917 C62.6592756,39.1792917 62.0597973,39.0438447 61.640915,38.775459 C61.2220327,38.5045651 60.8508077,38.0004013 60.5322564,37.2604595 L56.7848901,28.9580616 L53.2783185,30.5157018 L55.7439551,35.7580014 C56.1227049,36.5782081 56.313334,37.2479181 56.313334,37.7671315 C56.313334,38.7077355 55.7038226,39.1767834 54.4847998,39.1767834 L50.8578308,39.1767834 C49.538477,39.1767834 48.5502157,38.747868 47.8905388,37.8875288 L45.4023277,40.7645229 C46.1222033,41.5445972 46.8822113,42.0989265 47.6798435,42.4275108 C48.4799839,42.7560951 49.4682452,42.9216414 50.6471355,42.9216414 L55.0842781,42.9216414 C56.8601385,42.9216414 58.0891943,42.3321962 58.7664292,41.1533059 C59.6041938,42.3321962 60.8909401,42.9216414 62.6316846,42.9216414 L62.6617839,42.9216414 L63.8306411,42.9216414 L70.8462928,42.9216414 L72.0452493,42.9216414 L79.0308016,42.9216414 L62.6642922,42.9216414 L61.4653356,42.9216414 L62.6642922,42.9216414 L69.6498445,42.9216414 L70.848801,42.9216414 L77.8343534,42.9216414 L79.0333099,42.9216414 L86.0188622,42.9216414 L87.2178188,42.9216414 L94.2008628,42.9216414 L95.3998194,42.9216414 L98.6956958,42.9216414 C100.095315,42.9216414 101.246614,42.7661282 102.15461,42.4525936 C103.062607,42.1390589 103.922946,41.6624862 104.738136,41.0153507 L106.897763,39.3373131 C107.695395,38.747868 108.683656,38.4543995 109.862546,38.4543995 L110.582422,38.4543995 L110.582422,34.5565366 L109.892646,34.5565366 C108.789004,34.5615531 107.828334,34.1878198 107.010635,33.4378449 Z"/>
    <rect width="7.013" height="4.221" fill="#64C5F0"/>
    <path fill="#6B539E" d="M17.0211699,12.3532658 C17.0211699,15.7996388 14.2169158,18.6038928 10.7705428,18.6038928 L7.0106351,18.6038928 L7.0106351,22.8253236 L10.7705428,22.8253236 C16.5445972,22.8253236 21.2426006,18.1273202 21.2426006,12.3532658 L21.2426006,0.00250827732 L9.99297682,0.00250827732 L9.99297682,4.223939 L17.0211699,4.223939 L17.0211699,12.3532658 L17.0211699,12.3532658 Z"/>
    <path fill="#363463" d="M41.7979332,19.8956557 C41.5621551,19.9809371 41.2410956,20.0235778 40.8347547,20.0235778 C40.3657068,20.0235778 40.0496639,19.9107053 39.8891341,19.6874686 C39.7286044,19.464232 39.6483395,19.1055483 39.6483395,18.613926 L39.6483395,12.8097722 C39.6483395,10.8658573 39.0112371,9.36339922 37.7395405,8.30490619 C36.4678439,7.24641316 34.6041938,6.71716665 32.1460821,6.71716665 C29.4521922,6.71716665 27.0793619,7.16614829 25.0275911,8.06411157 L25.7976322,11.3349052 C27.6989064,10.5021571 29.612722,10.0832748 31.5365707,10.0832748 C33.9520417,10.0832748 35.1610314,10.8859235 35.1610314,12.4887128 L35.1610314,13.5472058 C33.836661,13.4192836 32.7982342,13.3540684 32.0507675,13.3540684 C29.6352965,13.3540684 27.731514,13.7980335 26.3444366,14.6859637 C24.954851,15.5738938 24.2600582,16.9258553 24.2600582,18.7418481 C24.2600582,20.088793 24.7516805,21.1999599 25.7349253,22.0753487 C26.71817,22.9507374 28.0325073,23.389686 29.6804455,23.389686 C32.0959165,23.389686 33.9871576,22.5142972 35.356677,20.7610113 C35.7830842,22.5142972 37.1099629,23.389686 39.3322966,23.389686 C40.2302599,23.389686 41.0529748,23.28183 41.8029497,23.0686265 L41.8029497,19.8956557 L41.7979332,19.8956557 Z M35.1610314,18.4232969 C34.0498646,19.491823 32.7982342,20.0260861 31.4086485,20.0260861 C30.6386074,20.0260861 30.0240795,19.8605398 29.5650647,19.5294472 C29.10605,19.1983546 28.8752885,18.7117488 28.8752885,18.0696298 C28.8752885,16.7452594 30.0391291,16.0830741 32.3693188,16.0830741 C33.4152704,16.0830741 34.3458413,16.1583225 35.1585231,16.3088191 L35.1585231,18.4232969 L35.1610314,18.4232969 Z"/>
  </g>
</svg>
