<svg xmlns="http://www.w3.org/2000/svg" viewBox="0 0 93 65">
  <g fill="#2B3B79" opacity=".1" transform="matrix(-1 0 0 1 93 0)">
    <path d="M16.440367 36.0135135C16.440367 36.0135135 16.5382263 36.0135135 16.733945 36.0135135L17.0275229 36.0135135C20.941896 36.0135135 24.2201835 37.2822823 26.8623853 39.8198198 29.5045872 42.3573574 30.9235474 45.6756757 31.1192661 49.7747748 31.1192661 52.5075075 30.4342508 55.1426426 29.0642202 57.6801802 26.5198777 62.5600601 22.4097859 65 16.733945 65 11.8409786 65 7.82874618 62.9992492 4.69724771 58.9977477 1.56574924 54.9962462 0 49.8723724 0 43.6261261 0 29.3768769 6.36085627 14.8348348 19.0825688 0L24.9541284 0 32 5.85585586C27.6941896 10.9309309 23.9755352 16.7867868 20.8440367 23.4234234 18.8868502 27.5225225 17.4189602 31.7192192 16.440367 36.0135135zM77.440367 36.0135135C77.440367 36.0135135 77.5382263 36.0135135 77.733945 36.0135135L78.0275229 36.0135135C81.941896 36.0135135 85.2201835 37.2822823 87.8623853 39.8198198 90.5045872 42.3573574 91.9235474 45.6756757 92.1192661 49.7747748 92.1192661 52.5075075 91.4342508 55.1426426 90.0642202 57.6801802 87.5198777 62.5600601 83.4097859 65 77.733945 65 72.8409786 65 68.8287462 62.9992492 65.6972477 58.9977477 62.5657492 54.9962462 61 49.8723724 61 43.6261261 61 29.3768769 67.3608563 14.8348348 80.0825688 0L85.9541284 0 93 5.85585586C88.6941896 10.9309309 84.9755352 16.7867868 81.8440367 23.4234234 79.8868502 27.5225225 78.4189602 31.7192192 77.440367 36.0135135z"/>
  </g>
</svg>
